HIERARCHY
ROOT Hips
{
	OFFSET 0.00000 0.00000 0.00000
	CHANNELS 6 Xposition Yposition Zposition Zrotation Yrotation Xrotation 
	JOINT LHipJoint
	{
		OFFSET 0 0 0
		CHANNELS 3 Zrotation Yrotation Xrotation
		JOINT LeftHip
		{
			OFFSET 1.62067 -1.77917 0.70989
			CHANNELS 3 Zrotation Yrotation Xrotation
			JOINT LeftKnee
			{
				OFFSET 2.34532 -6.44371 0.00000
				CHANNELS 3 Zrotation Yrotation Xrotation
				JOINT LeftAnkle
				{
					OFFSET 2.74224 -7.53425 0.00000
					CHANNELS 3 Zrotation Yrotation Xrotation
					JOINT LeftToe
					{
						OFFSET 0.17032 -0.46794 2.08086
						CHANNELS 3 Zrotation Yrotation Xrotation
						End Site
						{
							OFFSET 0.00000 -0.00000 1.07476
						}
					}
				}
			}
		}
	}
	JOINT RHipJoint
	{
		OFFSET 0 0 0
		CHANNELS 3 Zrotation Yrotation Xrotation
		JOINT RightHip
		{
			OFFSET -1.55811 -1.77917 0.70989
			CHANNELS 3 Zrotation Yrotation Xrotation
			JOINT RightKnee
			{
				OFFSET -2.33243 -6.40830 0.00000
				CHANNELS 3 Zrotation Yrotation Xrotation
				JOINT RightAnkle
				{
					OFFSET -2.78798 -7.65993 0.00000
					CHANNELS 3 Zrotation Yrotation Xrotation
					JOINT RightToe
					{
						OFFSET -0.22707 -0.62388 2.04059
						CHANNELS 3 Zrotation Yrotation Xrotation
						End Site
						{
							OFFSET -0.00000 -0.00000 1.07030
						}
					}
				}
			}
		}
	}
	JOINT lowerback
	{
		OFFSET 0 0 0
		CHANNELS 3 Zrotation Yrotation Xrotation
		JOINT Chest
		{
			OFFSET 0.02203 1.91565 0.07161
			CHANNELS 3 Zrotation Yrotation Xrotation
			JOINT Chest2
			{
				OFFSET 0.01740 1.90525 0.11636
				CHANNELS 3 Zrotation Yrotation Xrotation
				JOINT lowerneck
				{
					OFFSET 0 0 0
					CHANNELS 3 Zrotation Yrotation Xrotation
					JOINT Neck
					{
						OFFSET -0.10841 1.83566 0.05067
						CHANNELS 3 Zrotation Yrotation Xrotation
						JOINT Head
						{
							OFFSET 0.06601 1.74760 -0.50505
							CHANNELS 3 Zrotation Yrotation Xrotation
							End Site
							{
								OFFSET 0.03102 1.85215 -0.17697
							}
						}
					}
				}
				JOINT LeftCollar
				{
					OFFSET 0 0 0
					CHANNELS 3 Zrotation Yrotation Xrotation
					JOINT LeftShoulder
					{
						OFFSET 2.87059 1.35470 0.16111
CHANNELS 3 Zrotation Xrotation Yrotation
						JOINT LeftElbow
						{
OFFSET 0 -5.435920 0.000000
CHANNELS 3 Zrotation Xrotation Yrotation
							JOINT LeftWrist
							{
OFFSET 0 -3.254600 0.000000
CHANNELS 3 Zrotation Xrotation Yrotation
								JOINT lhand
								{
									OFFSET 0 0 0
CHANNELS 3 Zrotation Xrotation Yrotation
									JOINT LFingers
									{
OFFSET 0 -0.498240 0.000000
CHANNELS 3 Zrotation Xrotation Yrotation
										End Site
										{
OFFSET 0 -0.401700 0.000000
										}
									}
								}
								JOINT LThumb
								{
OFFSET 0 0.000000 0.000000
CHANNELS 3 Zrotation Xrotation Yrotation
									End Site
									{
OFFSET 0 -0.407830 0.407830
									}
								}
							}
						}
					}
				}
				JOINT RightCollar
				{
					OFFSET 0 0 0
					CHANNELS 3 Zrotation Yrotation Xrotation
					JOINT RightShoulder
					{
						OFFSET -2.86643 1.23488 0.45957
CHANNELS 3 Zrotation Xrotation Yrotation
						JOINT RightElbow
						{
OFFSET 0 -5.338300 0.000000
CHANNELS 3 Zrotation Xrotation Yrotation
							JOINT RightWrist
							{
OFFSET 0 -3.231480 0.000000
CHANNELS 3 Zrotation Xrotation Yrotation
								JOINT rhand
								{
									OFFSET 0 0 0
CHANNELS 3 Zrotation Xrotation Yrotation
									JOINT RFingers
									{
OFFSET 0 -0.463640 0.000000
CHANNELS 3 Zrotation Xrotation Yrotation
										End Site
										{
OFFSET 0 -0.373800 0.000000
										}
									}
								}
								JOINT RThumb
								{
OFFSET 0 0.000000 0.000000
CHANNELS 3 Zrotation Xrotation Yrotation
									End Site
									{
OFFSET 0 -0.379510 0.379510
									}
								}
							}
						}
					}
				}
			}
		}
	}
}
MOTION
Frames: 9
Frame Time: 0.008333333333333333
-1.473747 14.845118 -4.037719 -9.650763 -4.857453 21.269336 0.000000 0.000000 0.000000 -0.450524 -13.075446 -83.183463 10.148505 17.487167 59.976329 0.011480 -5.265944 -4.030130 0.690124 -5.309071 -14.792675 0.000000 0.000000 0.000000 34.887806 11.059702 -5.004755 -7.041195 -15.365168 49.027643 -1.422165 -8.350359 -26.813989 -4.271691 12.512264 -37.570900 7.915485 3.660844 -6.601468 2.395395 4.590424 -6.355381 -1.712634 2.065716 -2.523805 -4.994555 -2.661496 -14.958533 3.638153 -3.046951 10.623376 1.678260 -1.409159 5.789982 0.000000 0.000000 0.000000 18.093535 34.370474 -56.313910 104.014038 -59.239939 72.105100 39.427971 -33.276923 31.476082 0.000000 0.000000 0.000000 -7.125000 0.000000 0.000000 4.296373 -8.325348 4.886481 0.000000 0.000000 0.000000 -10.505716 -4.969318 75.190438 -70.176761 -58.459013 -42.921712 -18.869792 35.016291 32.216767 0.000000 0.000000 0.000000 7.125000 0.000000 0.000000 16.155817 62.930592 -7.130508
-1.490442 14.871955 -3.820357 -9.406690 -4.660959 20.842207 0.000000 0.000000 0.000000 -1.259372 -13.165137 -82.573989 9.764114 17.267300 58.686388 -0.037560 -5.928632 -2.966190 0.653772 -5.169213 -14.392424 0.000000 0.000000 0.000000 34.779417 10.272307 -3.861266 -6.889984 -15.236704 48.453728 -1.115696 -8.301277 -24.385566 -4.380873 12.648992 -38.070900 7.708056 3.684133 -6.643204 2.229786 4.619473 -6.287142 -1.763302 2.089547 -2.425016 -5.110665 -2.862289 -14.817798 3.891659 -3.342652 10.850129 1.750380 -1.539877 5.858346 0.000000 0.000000 0.000000 19.090405 34.804823 -56.891331 105.114915 -59.112018 73.050301 39.092912 -32.899168 31.419446 0.000000 0.000000 0.000000 -7.125000 0.000000 0.000000 4.128718 -8.138245 4.683643 0.000000 0.000000 0.000000 -10.129547 -5.016355 75.461515 -70.984482 -58.584639 -43.610735 -18.734775 35.040874 32.201700 0.000000 0.000000 0.000000 7.125000 0.000000 0.000000 16.296051 62.881176 -7.175124
-1.506980 14.899329 -3.602764 -9.163606 -4.466670 20.419424 0.000000 0.000000 0.000000 -2.076003 -13.246854 -81.963360 9.391630 17.052465 57.433849 -0.083314 -6.522969 -1.915476 0.610861 -4.997478 -13.902316 0.000000 0.000000 0.000000 34.666539 9.494907 -2.755323 -6.749599 -15.117298 47.920666 -0.820721 -8.196380 -21.941509 -4.461485 12.749684 -38.439515 7.499481 3.707231 -6.691243 2.065791 4.647774 -6.217306 -1.811174 2.113196 -2.321408 -5.228073 -3.063182 -14.676964 4.144388 -3.638370 11.073392 1.822448 -1.670681 5.925881 0.000000 0.000000 0.000000 20.082630 35.219366 -57.465987 106.197821 -58.984157 73.979801 38.761708 -32.516891 31.345491 0.000000 0.000000 0.000000 -7.125000 0.000000 0.000000 3.967345 -7.933857 4.487172 0.000000 0.000000 0.000000 -9.757693 -5.072203 75.733343 -71.792759 -58.708876 -44.300457 -18.573632 35.024473 32.183130 0.000000 0.000000 0.000000 7.125000 0.000000 0.000000 16.462527 62.821712 -7.227388
-1.522172 14.931341 -3.383190 -8.929048 -4.291377 20.034073 0.000000 0.000000 0.000000 -2.959684 -13.259876 -81.342784 9.121721 16.880970 56.503548 -0.100760 -6.528436 -0.978706 0.511445 -4.551109 -12.638042 0.000000 0.000000 0.000000 34.514995 8.803630 -1.972852 -6.702479 -15.075938 47.739573 -0.624769 -7.610612 -19.362753 -4.295959 12.539918 -37.676202 7.281034 3.728683 -6.793580 1.915708 4.669644 -6.133708 -1.834964 2.135275 -2.176291 -5.356663 -3.264935 -14.535269 4.390423 -3.934238 11.266589 1.894068 -1.802234 5.986273 0.000000 0.000000 0.000000 21.034842 35.463273 -58.016822 107.125910 -58.856820 74.774041 38.463712 -32.095647 31.122327 0.000000 0.000000 0.000000 -7.125000 0.000000 0.000000 3.860083 -7.580560 4.345561 0.000000 0.000000 0.000000 -9.423010 -5.203964 76.011640 -72.605822 -58.821147 -44.996200 -18.187405 34.654982 32.134382 0.000000 0.000000 0.000000 7.125000 0.000000 0.000000 16.855098 62.675677 -7.345543
-1.537364 14.963353 -3.163616 -8.694491 -4.116085 19.648722 0.000000 0.000000 0.000000 -3.843365 -13.272898 -80.722208 8.851813 16.709476 55.573248 -0.118206 -6.533904 -0.041937 0.412029 -4.104740 -11.373768 0.000000 0.000000 0.000000 34.363451 8.112353 -1.190381 -6.655359 -15.034577 47.558479 -0.428818 -7.024844 -16.783997 -4.130434 12.330152 -36.912888 7.062587 3.750136 -6.895918 1.765624 4.691514 -6.050111 -1.858753 2.157353 -2.031174 -5.485252 -3.466688 -14.393575 4.636458 -4.230107 11.459786 1.965687 -1.933787 6.046665 0.000000 0.000000 0.000000 21.987054 35.707179 -58.567656 108.053998 -58.729482 75.568282 38.165715 -31.674403 30.899164 0.000000 0.000000 0.000000 -7.125000 0.000000 0.000000 3.752821 -7.227263 4.203950 0.000000 0.000000 0.000000 -9.088327 -5.335726 76.289937 -73.418885 -58.933417 -45.691943 -17.801178 34.285491 32.085634 0.000000 0.000000 0.000000 7.125000 0.000000 0.000000 17.247669 62.529642 -7.463699
-1.550783 14.989927 -2.945814 -8.601001 -3.927230 19.306189 0.000000 0.000000 0.000000 -4.560802 -13.232406 -80.190191 8.658172 16.581242 54.898046 -0.107077 -5.975483 0.749717 0.288590 -3.280495 -9.074709 0.000000 0.000000 0.000000 34.314472 7.549467 -0.694243 -6.670972 -15.048326 47.618567 -0.279731 -6.457870 -14.094076 -3.851705 11.943947 -35.556136 6.989787 3.781901 -6.964923 1.656526 4.724849 -5.968227 -1.921223 2.180436 -1.899591 -5.573063 -3.639010 -14.308319 4.798307 -4.479582 11.620597 2.007610 -2.046753 6.102389 0.000000 0.000000 0.000000 22.877715 35.809397 -59.068996 108.914655 -58.600254 76.303187 37.804276 -31.344378 30.790208 0.000000 0.000000 0.000000 -7.125000 0.000000 0.000000 3.580875 -6.979841 3.997656 0.000000 0.000000 0.000000 -8.767444 -5.533086 76.522167 -74.228226 -59.035552 -46.385765 -17.366490 33.746506 31.991587 0.000000 0.000000 0.000000 7.125000 0.000000 0.000000 17.652621 62.329680 -7.559840
-1.563471 15.014259 -2.728744 -8.565692 -3.732781 18.981314 0.000000 0.000000 0.000000 -5.209675 -13.169843 -79.694699 8.495985 16.470850 54.328054 -0.084164 -5.184498 1.481520 0.155243 -2.300403 -6.348874 0.000000 0.000000 0.000000 34.307794 7.039534 -0.316196 -6.712458 -15.084804 47.778124 -0.149973 -5.898646 -11.358308 -3.526287 11.484974 -33.954634 6.977058 3.817919 -7.020182 1.564330 4.762912 -5.887050 -1.999645 2.203934 -1.773589 -5.644057 -3.799194 -14.246341 4.925436 -4.709925 11.768052 2.037284 -2.152053 6.156187 0.000000 0.000000 0.000000 23.742990 35.853178 -59.549923 109.747502 -58.470246 77.013621 37.416672 -31.051974 30.728355 0.000000 0.000000 0.000000 -7.125000 0.000000 0.000000 3.382252 -6.776084 3.764684 0.000000 0.000000 0.000000 -8.452252 -5.757502 76.735397 -75.036030 -59.133507 -47.078795 -16.911816 33.137616 31.878858 0.000000 0.000000 0.000000 7.125000 0.000000 0.000000 18.062680 62.107476 -7.646902
-1.576093 15.034516 -2.514591 -8.621236 -3.515492 18.668172 0.000000 0.000000 0.000000 -5.756758 -13.087175 -79.177148 8.374412 16.387868 53.900416 -0.065092 -4.526920 2.020080 0.073410 -1.727891 -4.754847 0.000000 0.000000 0.000000 34.398454 6.555631 -0.049290 -6.787930 -15.149851 48.066154 -0.043108 -5.523536 -8.896699 -3.324902 11.202796 -32.967638 7.057134 3.861725 -7.055127 1.490821 4.808607 -5.804167 -2.110310 2.228825 -1.651468 -5.701026 -3.950835 -14.201630 5.059440 -4.931712 11.905245 2.067414 -2.251663 6.209321 0.000000 0.000000 0.000000 24.603865 35.811069 -60.038818 110.529459 -58.344665 77.680068 37.032922 -30.831411 30.703744 0.000000 0.000000 0.000000 -7.125000 0.000000 0.000000 3.176546 -6.615755 3.526699 0.000000 0.000000 0.000000 -8.137373 -6.003820 76.905630 -75.833769 -59.226357 -47.763661 -16.355885 32.584576 31.735619 0.000000 0.000000 0.000000 7.125000 0.000000 0.000000 18.555166 61.832964 -7.741268
-1.588573 15.045785 -2.306870 -8.877121 -3.247837 18.380901 0.000000 0.000000 0.000000 -6.079379 -12.960172 -78.610954 8.342401 16.365331 53.786685 -0.054491 -4.163523 2.132518 0.105171 -2.054143 -5.656600 0.000000 0.000000 0.000000 34.703754 6.129129 -0.027462 -6.938348 -15.277897 48.637481 0.013278 -5.554421 -7.039646 -3.397022 11.310475 -33.335710 7.341859 3.922701 -7.045277 1.458517 4.871127 -5.717523 -2.292071 2.256788 -1.537904 -5.727069 -4.083640 -14.194993 5.208605 -5.134633 12.019811 2.098549 -2.338725 6.260990 0.000000 0.000000 0.000000 25.455033 35.579558 -60.545287 111.199201 -58.228847 78.249517 36.657671 -30.769265 30.761256 0.000000 0.000000 0.000000 -7.125000 0.000000 0.000000 2.955219 -6.551189 3.277659 0.000000 0.000000 0.000000 -7.823182 -6.298436 76.981048 -76.609312 -59.307952 -48.430522 -15.576669 32.154693 31.525101 0.000000 0.000000 0.000000 7.125000 0.000000 0.000000 19.229414 61.443106 -7.851744
